<?xml version="1.0" encoding="UTF-8"?>
<svg version="1.1" xmlns="http://www.w3.org/2000/svg" width="256" height="256">
<path d="M0 0 C1.57960766 2.63792333 2.36043931 5.11208656 2.9296875 8.1171875 C3.08566406 8.88933594 3.24164063 9.66148438 3.40234375 10.45703125 C3.71569166 12.06002593 4.02305597 13.66420267 4.32421875 15.26953125 C5.56834842 21.34857132 7.67211192 25.60156986 12.0625 30.125 C18.69036723 34.35555355 26.07063736 36.06032118 33.66748047 37.75537109 C46.39379281 40.60213477 58.42383559 43.39207558 66 55 C70.01056015 61.63617867 69.69170318 69.48109665 69 77 C67.98046875 79.92578125 67.98046875 79.92578125 67 82 C67.71285156 82.36351563 68.42570313 82.72703125 69.16015625 83.1015625 C80.72710368 89.17304231 87.39318939 95.21820025 92.4375 107.5 C93.18375296 112.14335176 92.68899314 116.37257313 92 121 C92.53367188 121.13535156 93.06734375 121.27070313 93.6171875 121.41015625 C103.5834201 124.28967328 111.73327068 129.97132116 117 139 C123.18265985 150.81014208 123.26485596 166.31281719 120.28125 179.07421875 C113.5834192 199.31206095 96.2472069 214.72536613 77.74316406 224.28466797 C37.09507516 244.3579273 -10.99508679 242.57493686 -53.296875 228.37109375 C-75.76787503 220.05113488 -93.17704641 207.73827287 -103.640625 185.515625 C-109.14984132 171.52094905 -109.36264921 156.96162494 -104.3125 142.8125 C-98.88465829 130.56556473 -90.11064415 125.0621533 -78.2578125 119.77734375 C-76 119 -76 119 -73 119 C-73.495 117.453125 -73.495 117.453125 -74 115.875 C-76.95025762 103.90417051 -75.22271 92.43242554 -69.25 81.8125 C-63.73531124 73.21012486 -57.74515025 68.35466054 -48 65 C-46.00785644 64.62254122 -44.00854349 64.27724389 -42 64 C-42.04640625 62.85144531 -42.0928125 61.70289063 -42.140625 60.51953125 C-42.68758435 41.42342583 -36.92038999 27.81631902 -24.4375 13.5625 C-8.26232026 -3.5409944 -8.26232026 -3.5409944 0 0 Z " fill="#875641" transform="translate(121,9)"/>
<path d="M0 0 C3.442162 0.59599271 6.42147679 1.49287795 9.625 2.875 C30.00472162 11.20252369 56.26562152 12.7300442 77 5 C77.82371094 4.71511719 78.64742188 4.43023437 79.49609375 4.13671875 C82.30732108 3.13086677 85.03233682 1.98530145 87.75 0.75 C90.34430313 -0.11476771 91.43714198 0.24621823 94 1 C89.23882904 14.92463066 81.14680982 23.97985918 68.0234375 30.47265625 C55.81541742 35.60459912 42.05072573 36.07056901 29.4375 32 C15.25808327 26.06132664 5.80461861 16.1504297 0 2 C0 1.34 0 0.68 0 0 Z " fill="#37240D" transform="translate(81,187)"/>
<path d="M0 0 C3.28028964 0.03255871 6.29910894 0.56601488 9.515625 1.1875 C18.97358636 2.67316494 28.47268949 2.4493516 38.02441406 2.39331055 C41.24291943 2.37504019 44.46113557 2.37280163 47.6796875 2.37304688 C60.68220874 2.35074065 73.42502985 1.92804423 86.32421875 0.17578125 C88.25 0.1875 88.25 0.1875 90.25 2.1875 C90.25 3.5075 90.25 4.8275 90.25 6.1875 C82.86057279 10.25752311 75.39865034 13.02522778 67.25 15.1875 C66.60981934 15.36845215 65.96963867 15.5494043 65.31005859 15.73583984 C58.55400637 17.47470023 51.94499959 17.48405866 45 17.4375 C43.29263672 17.44910156 43.29263672 17.44910156 41.55078125 17.4609375 C30.85222714 17.4366502 20.52105584 16.29812531 10.375 12.8125 C9.747146 12.59698486 9.11929199 12.38146973 8.47241211 12.15942383 C4.05848997 10.59768057 0.1528481 8.75766826 -3.75 6.1875 C-3.792721 4.52138095 -3.79063832 2.85367115 -3.75 1.1875 C-2.75 0.1875 -2.75 0.1875 0 0 Z " fill="#F8F7F6" transform="translate(84.75,179.8125)"/>
<path d="M0 0 C4.83200821 -0.68046773 9.19172794 -0.93536312 14 0 C17.86434423 3.13366929 20.54944243 6.68235095 23 11 C23 11.66 23 12.32 23 13 C25.3666296 10.70508645 27.61688947 8.49231068 29.64453125 5.88671875 C34.19621966 0.10206735 34.19621966 0.10206735 38.9375 -0.5 C40.4534375 -0.2525 40.4534375 -0.2525 42 0 C40.12656982 4.73466901 36.29552682 7.99837783 32.72460938 11.49023438 C31.02152954 13.18849425 31.02152954 13.18849425 29 16 C29.27165562 19.9822702 30.64734845 22.26560701 33.125 25.3203125 C33.74890625 26.10277344 34.3728125 26.88523438 35.015625 27.69140625 C35.67046875 28.49449219 36.3253125 29.29757813 37 30.125 C38.29530835 31.72883652 39.5871407 33.33548838 40.875 34.9453125 C41.44992188 35.65187988 42.02484375 36.35844727 42.6171875 37.08642578 C44 39 44 39 45 42 C40.1094977 42.82447949 35.85906994 43.10935378 31 42 C26.63303237 38.61196959 23.79457673 33.6876771 21 29 C17.14174662 30.54506714 15.01484232 32.95815635 12.3125 36.0625 C11.52488281 36.96097656 10.73726562 37.85945313 9.92578125 38.78515625 C9.29027344 39.51605469 8.65476563 40.24695313 8 41 C7 42 7 42 3.4375 42.0625 C2.303125 42.041875 1.16875 42.02125 0 42 C4.04178162 36.32565561 8.46385645 31.27593195 13.33984375 26.296875 C15.23404269 24.21469934 15.23404269 24.21469934 14.80126953 22.12255859 C13.84030985 19.57698166 12.54841422 17.85972557 10.83984375 15.7421875 C10.21142578 14.95199219 9.58300781 14.16179687 8.93554688 13.34765625 C8.27619141 12.53167969 7.61683594 11.71570313 6.9375 10.875 C5.62980043 9.25086001 4.32618773 7.62341807 3.02734375 5.9921875 C2.44718506 5.27401855 1.86702637 4.55584961 1.26928711 3.81591797 C0 2 0 2 0 0 Z " fill="#17181B" transform="translate(139,103)"/>
<path d="M0 0 C4.83200821 -0.68046773 9.19172794 -0.93536312 14 0 C17.86434423 3.13366929 20.54944243 6.68235095 23 11 C23 11.66 23 12.32 23 13 C25.3666296 10.70508645 27.61688947 8.49231068 29.64453125 5.88671875 C34.19621966 0.10206735 34.19621966 0.10206735 38.9375 -0.5 C40.4534375 -0.2525 40.4534375 -0.2525 42 0 C40.12656982 4.73466901 36.29552682 7.99837783 32.72460938 11.49023438 C31.02152954 13.18849425 31.02152954 13.18849425 29 16 C29.27165562 19.9822702 30.64734845 22.26560701 33.125 25.3203125 C33.74890625 26.10277344 34.3728125 26.88523438 35.015625 27.69140625 C35.67046875 28.49449219 36.3253125 29.29757813 37 30.125 C38.29530835 31.72883652 39.5871407 33.33548838 40.875 34.9453125 C41.44992188 35.65187988 42.02484375 36.35844727 42.6171875 37.08642578 C44 39 44 39 45 42 C40.1094977 42.82447949 35.85906994 43.10935378 31 42 C26.63303237 38.61196959 23.79457673 33.6876771 21 29 C17.14174662 30.54506714 15.01484232 32.95815635 12.3125 36.0625 C11.52488281 36.96097656 10.73726562 37.85945313 9.92578125 38.78515625 C9.29027344 39.51605469 8.65476562 40.24695313 8 41 C7 42 7 42 3.4375 42.0625 C2.303125 42.041875 1.16875 42.02125 0 42 C4.04178162 36.32565561 8.46385645 31.27593195 13.33984375 26.296875 C15.23404269 24.21469934 15.23404269 24.21469934 14.80126953 22.12255859 C13.84030985 19.57698166 12.54841422 17.85972557 10.83984375 15.7421875 C10.21142578 14.95199219 9.58300781 14.16179687 8.93554688 13.34765625 C8.27619141 12.53167969 7.61683594 11.71570313 6.9375 10.875 C5.62980043 9.25086001 4.32618773 7.62341807 3.02734375 5.9921875 C2.44718506 5.27401855 1.86702637 4.55584961 1.26928711 3.81591797 C0 2 0 2 0 0 Z " fill="#17181B" transform="translate(74,103)"/>
<path d="M0 0 C3.1278542 0.31575085 4.64481938 0.65270127 6.92529297 2.88256836 C7.52486816 3.69346924 8.12444336 4.50437012 8.7421875 5.33984375 C9.41636719 6.23896484 10.09054688 7.13808594 10.78515625 8.06445312 C11.47480469 9.01255859 12.16445312 9.96066406 12.875 10.9375 C13.55691406 11.85080078 14.23882812 12.76410156 14.94140625 13.70507812 C19.41187221 19.72104803 23.73291373 25.8385683 28 32 C26.02 32.495 26.02 32.495 24 33 C23.59273682 32.45174561 23.18547363 31.90349121 22.76586914 31.33862305 C12.41671709 17.37186158 12.41671709 17.37186158 1.44140625 3.8984375 C0 2 0 2 0 0 Z " fill="#7B503D" transform="translate(147,107)"/>
<path d="M0 0 C3.1278542 0.31575085 4.64481938 0.65270127 6.92529297 2.88256836 C7.52486816 3.69346924 8.12444336 4.50437012 8.7421875 5.33984375 C9.41636719 6.23896484 10.09054688 7.13808594 10.78515625 8.06445312 C11.47480469 9.01255859 12.16445312 9.96066406 12.875 10.9375 C13.55691406 11.85080078 14.23882812 12.76410156 14.94140625 13.70507812 C19.41187221 19.72104803 23.73291373 25.8385683 28 32 C26.02 32.495 26.02 32.495 24 33 C23.59273682 32.45174561 23.18547363 31.90349121 22.76586914 31.33862305 C12.41671709 17.37186158 12.41671709 17.37186158 1.44140625 3.8984375 C0 2 0 2 0 0 Z " fill="#7B4F3D" transform="translate(82,107)"/>
</svg>
